<mxfile host="app.diagrams.net" modified="2022-10-17T19:55:02.558Z" agent="5.0 (Windows NT 10.0; Win64; x64) AppleWebKit/537.36 (KHTML, like Gecko) Chrome/106.0.0.0 Safari/537.36" etag="wpGSG42MeQ-ybVihoIg1" version="20.4.0" type="github">
  <diagram id="3GrmIsDeJTuAdP56ZO4b" name="PÃ¡gina-1">
    <mxGraphModel dx="1422" dy="705" grid="1" gridSize="10" guides="1" tooltips="1" connect="1" arrows="1" fold="1" page="1" pageScale="1" pageWidth="827" pageHeight="1169" math="0" shadow="0">
      <root>
        <mxCell id="0" />
        <mxCell id="1" parent="0" />
        <mxCell id="cDcl2m6ihmtYbbKUVlXN-1" value="Custumer" style="shape=cylinder3;whiteSpace=wrap;html=1;boundedLbl=1;backgroundOutline=1;size=15;" vertex="1" parent="1">
          <mxGeometry x="720" y="40" width="60" height="80" as="geometry" />
        </mxCell>
        <mxCell id="cDcl2m6ihmtYbbKUVlXN-2" value="prodcuts" style="shape=cylinder3;whiteSpace=wrap;html=1;boundedLbl=1;backgroundOutline=1;size=15;" vertex="1" parent="1">
          <mxGeometry x="720" y="520" width="60" height="80" as="geometry" />
        </mxCell>
        <mxCell id="cDcl2m6ihmtYbbKUVlXN-3" value="acounts" style="shape=cylinder3;whiteSpace=wrap;html=1;boundedLbl=1;backgroundOutline=1;size=15;" vertex="1" parent="1">
          <mxGeometry x="720" y="200" width="60" height="80" as="geometry" />
        </mxCell>
        <mxCell id="cDcl2m6ihmtYbbKUVlXN-4" value="credits" style="shape=cylinder3;whiteSpace=wrap;html=1;boundedLbl=1;backgroundOutline=1;size=15;" vertex="1" parent="1">
          <mxGeometry x="720" y="360" width="60" height="80" as="geometry" />
        </mxCell>
        <mxCell id="cDcl2m6ihmtYbbKUVlXN-5" value="custumer-service" style="shape=hexagon;perimeter=hexagonPerimeter2;whiteSpace=wrap;html=1;fixedSize=1;" vertex="1" parent="1">
          <mxGeometry x="500" y="40" width="120" height="80" as="geometry" />
        </mxCell>
        <mxCell id="cDcl2m6ihmtYbbKUVlXN-6" value="acounts-service" style="shape=hexagon;perimeter=hexagonPerimeter2;whiteSpace=wrap;html=1;fixedSize=1;" vertex="1" parent="1">
          <mxGeometry x="500" y="200" width="120" height="80" as="geometry" />
        </mxCell>
        <mxCell id="cDcl2m6ihmtYbbKUVlXN-7" value="credits-service" style="shape=hexagon;perimeter=hexagonPerimeter2;whiteSpace=wrap;html=1;fixedSize=1;" vertex="1" parent="1">
          <mxGeometry x="500" y="360" width="120" height="80" as="geometry" />
        </mxCell>
        <mxCell id="cDcl2m6ihmtYbbKUVlXN-8" value="products-service" style="shape=hexagon;perimeter=hexagonPerimeter2;whiteSpace=wrap;html=1;fixedSize=1;" vertex="1" parent="1">
          <mxGeometry x="500" y="520" width="120" height="80" as="geometry" />
        </mxCell>
        <mxCell id="cDcl2m6ihmtYbbKUVlXN-10" value="config-server" style="shape=hexagon;perimeter=hexagonPerimeter2;whiteSpace=wrap;html=1;fixedSize=1;" vertex="1" parent="1">
          <mxGeometry x="250" y="280" width="120" height="80" as="geometry" />
        </mxCell>
        <mxCell id="cDcl2m6ihmtYbbKUVlXN-11" value="Broser" style="ellipse;whiteSpace=wrap;html=1;aspect=fixed;" vertex="1" parent="1">
          <mxGeometry x="40" y="280" width="80" height="80" as="geometry" />
        </mxCell>
        <mxCell id="cDcl2m6ihmtYbbKUVlXN-12" value="" style="endArrow=none;html=1;rounded=0;exitX=1;exitY=0.5;exitDx=0;exitDy=0;entryX=0;entryY=0.5;entryDx=0;entryDy=0;" edge="1" parent="1" source="cDcl2m6ihmtYbbKUVlXN-11" target="cDcl2m6ihmtYbbKUVlXN-10">
          <mxGeometry width="50" height="50" relative="1" as="geometry">
            <mxPoint x="390" y="390" as="sourcePoint" />
            <mxPoint x="440" y="340" as="targetPoint" />
          </mxGeometry>
        </mxCell>
        <mxCell id="cDcl2m6ihmtYbbKUVlXN-13" value="" style="endArrow=none;html=1;rounded=0;exitX=0.85;exitY=0;exitDx=0;exitDy=0;exitPerimeter=0;entryX=0;entryY=0.5;entryDx=0;entryDy=0;" edge="1" parent="1" source="cDcl2m6ihmtYbbKUVlXN-10" target="cDcl2m6ihmtYbbKUVlXN-5">
          <mxGeometry width="50" height="50" relative="1" as="geometry">
            <mxPoint x="390" y="390" as="sourcePoint" />
            <mxPoint x="440" y="340" as="targetPoint" />
          </mxGeometry>
        </mxCell>
        <mxCell id="cDcl2m6ihmtYbbKUVlXN-14" value="" style="endArrow=none;html=1;rounded=0;exitX=0.025;exitY=0.588;exitDx=0;exitDy=0;exitPerimeter=0;entryX=0.833;entryY=1.025;entryDx=0;entryDy=0;entryPerimeter=0;" edge="1" parent="1" source="cDcl2m6ihmtYbbKUVlXN-8" target="cDcl2m6ihmtYbbKUVlXN-10">
          <mxGeometry width="50" height="50" relative="1" as="geometry">
            <mxPoint x="320" y="550" as="sourcePoint" />
            <mxPoint x="468" y="350" as="targetPoint" />
          </mxGeometry>
        </mxCell>
        <mxCell id="cDcl2m6ihmtYbbKUVlXN-15" value="" style="endArrow=none;html=1;rounded=0;entryX=0;entryY=0.5;entryDx=0;entryDy=0;" edge="1" parent="1" source="cDcl2m6ihmtYbbKUVlXN-10" target="cDcl2m6ihmtYbbKUVlXN-6">
          <mxGeometry width="50" height="50" relative="1" as="geometry">
            <mxPoint x="390" y="390" as="sourcePoint" />
            <mxPoint x="440" y="340" as="targetPoint" />
          </mxGeometry>
        </mxCell>
        <mxCell id="cDcl2m6ihmtYbbKUVlXN-16" value="" style="endArrow=none;html=1;rounded=0;entryX=0;entryY=0.5;entryDx=0;entryDy=0;exitX=1;exitY=0.75;exitDx=0;exitDy=0;" edge="1" parent="1" source="cDcl2m6ihmtYbbKUVlXN-10" target="cDcl2m6ihmtYbbKUVlXN-7">
          <mxGeometry width="50" height="50" relative="1" as="geometry">
            <mxPoint x="379.99521739130427" y="349.56043478260875" as="sourcePoint" />
            <mxPoint x="520.43" y="290.43" as="targetPoint" />
          </mxGeometry>
        </mxCell>
        <mxCell id="cDcl2m6ihmtYbbKUVlXN-17" value="" style="endArrow=classic;html=1;rounded=0;exitX=1;exitY=0.5;exitDx=0;exitDy=0;entryX=0;entryY=0.5;entryDx=0;entryDy=0;entryPerimeter=0;" edge="1" parent="1" source="cDcl2m6ihmtYbbKUVlXN-5" target="cDcl2m6ihmtYbbKUVlXN-1">
          <mxGeometry width="50" height="50" relative="1" as="geometry">
            <mxPoint x="660" y="90" as="sourcePoint" />
            <mxPoint x="710" y="40" as="targetPoint" />
          </mxGeometry>
        </mxCell>
        <mxCell id="cDcl2m6ihmtYbbKUVlXN-18" value="" style="endArrow=classic;html=1;rounded=0;exitX=1;exitY=0.5;exitDx=0;exitDy=0;entryX=0;entryY=0.5;entryDx=0;entryDy=0;entryPerimeter=0;" edge="1" parent="1">
          <mxGeometry width="50" height="50" relative="1" as="geometry">
            <mxPoint x="620" y="239.5" as="sourcePoint" />
            <mxPoint x="720" y="239.5" as="targetPoint" />
          </mxGeometry>
        </mxCell>
        <mxCell id="cDcl2m6ihmtYbbKUVlXN-19" value="" style="endArrow=classic;html=1;rounded=0;exitX=1;exitY=0.5;exitDx=0;exitDy=0;entryX=0;entryY=0.5;entryDx=0;entryDy=0;entryPerimeter=0;" edge="1" parent="1">
          <mxGeometry width="50" height="50" relative="1" as="geometry">
            <mxPoint x="620" y="399.5" as="sourcePoint" />
            <mxPoint x="720" y="399.5" as="targetPoint" />
          </mxGeometry>
        </mxCell>
        <mxCell id="cDcl2m6ihmtYbbKUVlXN-20" value="" style="endArrow=classic;html=1;rounded=0;exitX=1;exitY=0.5;exitDx=0;exitDy=0;entryX=0;entryY=0.5;entryDx=0;entryDy=0;entryPerimeter=0;" edge="1" parent="1">
          <mxGeometry width="50" height="50" relative="1" as="geometry">
            <mxPoint x="620" y="559.5" as="sourcePoint" />
            <mxPoint x="720" y="559.5" as="targetPoint" />
          </mxGeometry>
        </mxCell>
      </root>
    </mxGraphModel>
  </diagram>
</mxfile>
